<svg width="27" height="27" viewBox="0 0 27 27" fill="none" xmlns="http://www.w3.org/2000/svg">
<path d="M7.56 2.15472C4.58388 2.15472 2.16 4.5786 2.16 7.55472V19.4347C2.16 22.4108 4.58388 24.8347 7.56 24.8347H19.44C22.4161 24.8347 24.84 22.4108 24.84 19.4347V7.55472C24.84 4.5786 22.4161 2.15472 19.44 2.15472H7.56ZM7.56 3.23472H19.44C21.8326 3.23472 23.76 5.16217 23.76 7.55472V19.4347C23.76 21.8273 21.8326 23.7547 19.44 23.7547H7.56C5.16744 23.7547 3.24 21.8273 3.24 19.4347V7.55472C3.24 5.16217 5.16744 3.23472 7.56 3.23472ZM9.74637 5.95898C8.6419 5.91126 7.80362 6.33092 7.27629 6.83543C7.01263 7.08768 6.82227 7.35759 6.692 7.60957C6.56172 7.86154 6.47895 8.06928 6.47895 8.33941C6.47895 8.31535 6.47302 8.44165 6.46946 8.58832C6.46589 8.73499 6.46654 8.9327 6.48 9.17156C6.50698 9.64928 6.58795 10.2955 6.80274 11.0616C7.23232 12.5938 8.19961 14.6037 10.298 16.702C12.3963 18.8004 14.4061 19.7676 15.9384 20.1973C16.7046 20.4121 17.3507 20.493 17.8284 20.52C18.0673 20.5335 18.2639 20.5341 18.4106 20.5305C18.5573 20.527 18.6846 20.5211 18.6606 20.5211C18.9307 20.5211 19.1385 20.4383 19.3904 20.308C19.6424 20.1777 19.9123 19.9874 20.1646 19.7237C20.6691 19.1964 21.0887 18.3581 21.041 17.2536C21.0184 16.7269 20.7259 16.2604 20.2943 15.9838C19.9608 15.7701 19.443 15.4383 18.7671 15.0061C17.983 14.5051 16.98 14.4693 16.162 14.9175L16.2084 14.8943L15.5725 15.1675L15.5261 15.2002C15.3715 15.3087 15.18 15.3288 15.0061 15.2561C14.5189 15.0523 13.7597 14.652 13.0539 13.9461C12.348 13.2403 11.9477 12.4811 11.744 11.9939C11.6712 11.82 11.6913 11.6285 11.7998 11.4739L11.8325 11.4275L12.1057 10.7916L12.0825 10.838C12.5306 10.0202 12.4957 9.01725 11.9939 8.23289C11.5617 7.55705 11.2299 7.03925 11.0162 6.7057C10.7396 6.27409 10.2731 5.98163 9.74637 5.95898ZM9.69997 7.03793C9.85145 7.04444 10.0078 7.13306 10.1071 7.28789C10.321 7.62178 10.653 8.13983 11.0848 8.81508C11.3713 9.26299 11.3915 9.85166 11.1354 10.3191L11.1227 10.3423L10.8622 10.9508L10.916 10.8527C10.5969 11.3073 10.5327 11.8976 10.7473 12.4105C10.9906 12.9925 11.4561 13.8755 12.2903 14.7097C13.1245 15.5439 14.0075 16.0094 14.5895 16.2527C15.1024 16.4673 15.6927 16.4031 16.1473 16.084L16.0492 16.1378L16.6577 15.8773L16.6809 15.8646C17.1481 15.6086 17.7368 15.63 18.1849 15.9163V15.9152C18.8602 16.347 19.3782 16.679 19.7121 16.8929C19.8669 16.9922 19.9556 17.1486 19.9621 17.3C19.9975 18.1201 19.7127 18.6336 19.3841 18.977C19.2198 19.1487 19.0417 19.2733 18.8947 19.3493C18.7478 19.4253 18.6073 19.4411 18.6606 19.4411C18.5616 19.4411 18.5094 19.4475 18.3853 19.4505C18.2612 19.4536 18.0949 19.4537 17.8896 19.4421C17.479 19.4189 16.9121 19.3488 16.2295 19.1573C14.8643 18.7745 13.0343 17.9111 11.0616 15.9384C9.08887 13.9657 8.22538 12.1355 7.84266 10.7705C7.6513 10.0879 7.58108 9.52099 7.5579 9.11039C7.5463 8.90509 7.54645 8.73874 7.54946 8.61469C7.55248 8.49063 7.55895 8.43853 7.55895 8.33941C7.55895 8.39274 7.57474 8.25221 7.65071 8.10527C7.72668 7.95834 7.8513 7.78018 8.02301 7.6159C8.36644 7.28732 8.87988 7.00249 9.69997 7.03793Z" fill="black"/>
</svg>
