<svg width="27" height="27" viewBox="0 0 27 27" fill="none" xmlns="http://www.w3.org/2000/svg">
<path d="M13.5 1.08002C6.647 1.08002 1.07999 6.64704 1.07999 13.5C1.07999 20.353 6.647 25.92 13.5 25.92C20.353 25.92 25.92 20.353 25.92 13.5C25.92 6.64704 20.353 1.08002 13.5 1.08002ZM13.5 2.16002C19.7693 2.16002 24.84 7.23071 24.84 13.5C24.84 19.7693 19.7693 24.84 13.5 24.84C7.23068 24.84 2.15999 19.7693 2.15999 13.5C2.15999 7.23071 7.23068 2.16002 13.5 2.16002ZM18.4074 7.579C18.0381 7.579 17.6231 7.66455 17.1376 7.83951C16.3838 8.11113 7.51718 11.8758 6.50846 12.304C5.93174 12.5492 4.85788 13.0052 4.85788 14.0928C4.85788 14.8137 5.2803 15.3293 6.1119 15.6263C6.55902 15.7856 7.62096 16.1074 8.2371 16.277C8.49846 16.3488 8.7762 16.3856 9.06186 16.3856C9.62076 16.3856 10.1832 16.2464 10.6239 16.0007C10.6201 16.0914 10.6225 16.1831 10.6333 16.2749C10.6998 16.8419 11.0494 17.3752 11.5678 17.7019C11.9069 17.9157 14.6768 19.7717 15.0905 20.0665C15.6715 20.4818 16.3138 20.7014 16.9467 20.7014C18.1563 20.7014 18.5621 19.4525 18.7576 18.8526C19.0411 17.9815 20.1027 10.8984 20.2226 9.64935C20.3041 8.79345 19.9474 8.08865 19.2681 7.76357C19.0137 7.64099 18.7233 7.579 18.4074 7.579ZM18.4074 8.659C18.5559 8.659 18.6885 8.68356 18.8008 8.7381C19.0563 8.86068 19.1862 9.13395 19.1468 9.54705C19.0161 10.9095 17.9571 17.8249 17.7314 18.5182C17.5381 19.1111 17.3344 19.6214 16.9467 19.6214C16.559 19.6214 16.1354 19.4855 15.718 19.1869C15.3006 18.8888 12.5287 17.0299 12.1437 16.7875C11.8062 16.5747 11.449 16.0443 11.9517 15.5313C12.3659 15.1091 15.5076 12.0598 15.776 11.7914C15.9758 11.5911 15.8824 11.3495 15.6864 11.3495C15.6189 11.3495 15.538 11.378 15.4543 11.4465C15.126 11.7149 10.5488 14.7778 10.1524 15.024C9.88997 15.1871 9.4836 15.3046 9.06186 15.3046C8.88204 15.3046 8.69999 15.283 8.52503 15.235C7.91591 15.067 6.88509 14.7543 6.47577 14.6085C6.08211 14.4681 5.93893 14.3336 5.93893 14.0928C5.93893 13.7504 6.42217 13.5141 6.93139 13.2975C7.46923 13.0691 16.7757 9.11707 17.5036 8.85517C17.8405 8.73313 18.1488 8.659 18.4074 8.659Z" fill="black"/>
</svg>
