<svg width="27" height="27" viewBox="0 0 27 27" fill="none" xmlns="http://www.w3.org/2000/svg">
<path d="M4.85997 2.15997C3.37523 2.15997 2.15997 3.37523 2.15997 4.85997V22.14C2.15997 23.6247 3.37523 24.84 4.85997 24.84H22.14C23.6247 24.84 24.84 23.6247 24.84 22.14V4.85997C24.84 3.37523 23.6247 2.15997 22.14 2.15997H4.85997ZM4.85997 3.23997H22.14C23.041 3.23997 23.76 3.95899 23.76 4.85997V22.14C23.76 23.041 23.041 23.76 22.14 23.76H4.85997C3.95899 23.76 3.23997 23.041 3.23997 22.14V4.85997C3.23997 3.95899 3.95899 3.23997 4.85997 3.23997ZM12.6341 8.63576C12.063 8.63445 11.5538 8.66636 11.0984 8.88993L11.0974 8.89099C10.8754 9.00037 10.7189 9.13931 10.5943 9.30443C10.532 9.38699 10.4682 9.4611 10.434 9.64931C10.4169 9.74341 10.4073 9.89591 10.5057 10.0606C10.6041 10.2254 10.802 10.319 10.9286 10.3359C11.0166 10.3476 11.2151 10.4321 11.2334 10.4572L11.2345 10.4593C11.2345 10.4593 11.3115 10.6602 11.3336 10.839C11.3558 11.0178 11.3547 11.1628 11.3547 11.1628C11.3545 11.1772 11.3549 11.1916 11.3558 11.206C11.3558 11.206 11.3871 11.6745 11.3663 12.1584C11.3581 12.3513 11.3331 12.5229 11.3073 12.6763C11.115 12.464 10.8316 12.0795 10.4224 11.3706C9.96842 10.5837 9.60712 9.87818 9.60712 9.87818C9.58815 9.81671 9.52104 9.62549 9.25908 9.4331C8.9727 9.22203 8.69587 9.19052 8.69587 9.19052C8.66115 9.18355 8.62582 9.18002 8.5904 9.17997L6.46204 9.18103C6.46204 9.18103 6.33443 9.17365 6.1815 9.19474C6.02856 9.21583 5.79827 9.233 5.57611 9.49638L5.57505 9.49743C5.3765 9.73468 5.38851 9.9969 5.41263 10.145C5.43675 10.2931 5.49068 10.4055 5.49068 10.4055C5.49172 10.4076 5.49277 10.4097 5.49384 10.4118C5.49384 10.4118 7.23474 14.0721 9.20212 16.2274C10.6308 17.7923 12.0972 17.8189 13.307 17.8189H14.2098C14.4403 17.8189 14.6488 17.8099 14.8795 17.6755C15.1103 17.541 15.2655 17.2138 15.2655 16.9868C15.2655 16.7489 15.301 16.5619 15.3446 16.4658C15.3753 16.3981 15.3995 16.3738 15.4374 16.354C15.4454 16.359 15.4403 16.3561 15.4627 16.3719C15.5526 16.4351 15.7011 16.5792 15.8625 16.759C16.1853 17.1185 16.5517 17.6116 17.0437 17.9497C17.3962 18.1922 17.7292 18.2998 17.9824 18.3389C18.141 18.3633 18.2642 18.3586 18.3515 18.3515L20.3681 18.36C20.3801 18.36 20.392 18.3597 20.404 18.3589C20.404 18.3589 20.7514 18.363 21.1127 18.1469C21.2934 18.0389 21.5064 17.8341 21.5757 17.5352C21.645 17.2363 21.5579 16.9267 21.388 16.644V16.6429C21.4175 16.6919 21.3613 16.5913 21.3036 16.4974C21.2459 16.4035 21.1622 16.2769 21.042 16.1198C20.8017 15.8057 20.4167 15.3662 19.7943 14.7867H19.7933C19.4772 14.4926 19.2638 14.2844 19.1763 14.1686C19.0888 14.0529 19.1175 14.1137 19.1236 14.0843C19.1357 14.0254 19.515 13.4782 20.2869 12.4474C20.7561 11.82 21.0854 11.3489 21.3026 10.9571C21.5197 10.5653 21.6763 10.226 21.5673 9.81068L21.5662 9.80857C21.5178 9.62625 21.3856 9.45821 21.2498 9.36665C21.114 9.2751 20.9853 9.23929 20.8701 9.21689C20.6398 9.17207 20.4388 9.17997 20.2521 9.17997C19.8607 9.17997 18.1243 9.19368 17.9813 9.19368C17.8125 9.19368 17.5332 9.2705 17.4097 9.3445C17.0991 9.53139 17.01 9.77693 17.01 9.77693C17.0044 9.7873 16.9991 9.79785 16.9942 9.80857C16.9942 9.80857 16.636 10.6029 16.1747 11.3874C15.7074 12.1832 15.3621 12.5628 15.1537 12.7385C15.148 12.7072 15.149 12.7326 15.1453 12.6889C15.1266 12.4667 15.1474 12.1596 15.1474 11.8599C15.1474 11.0529 15.2158 10.4881 15.179 9.98892C15.1607 9.73934 15.1144 9.48199 14.9502 9.24536C14.7859 9.00874 14.5126 8.85502 14.2425 8.78974C14.0804 8.75064 13.8956 8.64895 13.2268 8.64208H13.2258C13.0212 8.64004 12.8244 8.63619 12.6341 8.63576ZM13.2152 9.72208C13.807 9.72816 13.6596 9.76074 13.9883 9.84021C14.0902 9.86484 14.0655 9.8647 14.0632 9.8613C14.0608 9.8579 14.0907 9.91358 14.1022 10.0691C14.1251 10.3801 14.0674 10.9984 14.0674 11.8599C14.0674 12.0949 14.039 12.4301 14.0684 12.7796C14.0978 13.1291 14.1845 13.5776 14.6021 13.848C14.8001 13.9763 15.0299 13.9844 15.2265 13.9356C15.4231 13.8867 15.6014 13.7849 15.7886 13.635C16.1632 13.3351 16.5809 12.829 17.106 11.9348C17.5967 11.1001 17.9537 10.3053 17.9655 10.279C17.9678 10.2771 17.9702 10.2758 17.9729 10.2737C17.9796 10.2738 17.9727 10.2737 17.9813 10.2737C18.1829 10.2737 19.8875 10.26 20.2521 10.26C20.3372 10.26 20.3682 10.2651 20.4356 10.2674C20.4173 10.3285 20.4377 10.2895 20.3576 10.434C20.1896 10.737 19.88 11.1874 19.422 11.7998C18.6695 12.8048 18.2031 13.1986 18.0657 13.866C17.997 14.1996 18.1257 14.5694 18.3146 14.8194C18.5035 15.0693 18.7419 15.2835 19.0582 15.5777C19.6438 16.1231 19.9874 16.5193 20.1846 16.7769C20.2832 16.9057 20.3453 16.9987 20.3839 17.0617C20.4225 17.1246 20.413 17.1179 20.463 17.2009C20.496 17.2561 20.4838 17.2224 20.4894 17.2388C20.4246 17.2571 20.3462 17.2791 20.3417 17.28L18.3558 17.2715C18.32 17.2715 18.2843 17.275 18.2492 17.2821C18.2492 17.2821 18.2542 17.2879 18.148 17.2715C18.0417 17.2551 17.8728 17.2092 17.6554 17.0595C17.3931 16.8793 17.0259 16.4382 16.6661 16.0376C16.4863 15.8372 16.3069 15.6448 16.084 15.4881C15.8611 15.3313 15.5275 15.1839 15.1674 15.2972C14.7936 15.4145 14.5027 15.7063 14.3606 16.0196C14.2548 16.2529 14.2463 16.4965 14.2298 16.7389C14.2119 16.7403 14.2325 16.7389 14.2098 16.7389H13.307C12.0803 16.7389 11.2092 16.8238 9.99947 15.4986C8.37218 13.7159 6.88126 10.7498 6.63818 10.261L8.5113 10.26C8.54423 10.2726 8.61469 10.2991 8.61888 10.3022L8.62099 10.3043C8.55252 10.2542 8.62415 10.3243 8.62415 10.3243C8.63076 10.3405 8.63816 10.3563 8.6463 10.3718C8.6463 10.3718 9.01746 11.0969 9.48689 11.9106C9.94735 12.7082 10.2829 13.2065 10.607 13.5358C10.769 13.7005 10.9326 13.8325 11.1512 13.9071C11.3698 13.9816 11.6521 13.9543 11.842 13.8501C12.23 13.6378 12.2821 13.3245 12.3451 13.0507C12.4082 12.7764 12.4333 12.4843 12.4453 12.2048C12.4685 11.6623 12.4357 11.1928 12.4337 11.1638C12.4338 11.1537 12.4363 10.9579 12.4052 10.7072C12.3734 10.4504 12.3379 10.1365 12.1057 9.82017L12.1046 9.81911C12.103 9.8169 12.101 9.81706 12.0993 9.8149C12.4065 9.77085 12.6693 9.71663 13.2152 9.72208ZM17.9792 10.2515L17.9718 10.2684C17.9707 10.2691 17.9711 10.2676 17.9697 10.2684C17.972 10.2641 17.9792 10.2515 17.9792 10.2515Z" fill="black"/>
</svg>
